<?xml version="1.0" standalone="no"?><!DOCTYPE svg PUBLIC "-//W3C//DTD SVG 1.1//EN" "http://www.w3.org/Graphics/SVG/1.1/DTD/svg11.dtd"><svg t="1618391373822" class="icon" viewBox="0 0 1024 1024" version="1.1" xmlns="http://www.w3.org/2000/svg" p-id="6389" xmlns:xlink="http://www.w3.org/1999/xlink" width="16" height="16"><defs><style type="text/css"></style></defs><path d="M995.1272 635.047l-360.08 360.08a53.333 53.333 0 0 1-71.333 3.68l356.22-356.22a64 64 0 0 0 0-90.507L495.8402 128h45.574a52.987 52.987 0 0 1 37.713 15.62l416 416a53.4 53.4 0 0 1 0 75.427z m-128-75.427l-416-416A52.987 52.987 0 0 0 413.4142 128h-74.567a361.707 361.707 0 0 1 2.487 42.667c0 42.713-7.267 83.2-20.474 114-5.146 12-10.746 21.546-16.48 29.08a85.287 85.287 0 1 1-48.38-15.08c6 0 16.574-9.64 25.647-30.807 10.813-25.24 17.02-60.667 17.02-97.193A314.76 314.76 0 0 0 295.7942 128h-79.587c2.82-20.533 7.653-39.367 14.147-54.527C239.4272 52.307 250.0002 42.667 256.0002 42.667s16.574 9.64 25.647 30.806c6.493 15.16 11.333 34 14.147 54.527h43.053c-3.167-26.56-9.287-51.047-18-71.333C299.7342 7.333 271.1542 0 256.0002 0s-43.733 7.333-64.86 56.667c-8.666 20.286-14.82 44.773-18 71.333H53.3342A53.393 53.393 0 0 0 0.0002 181.333v360.08a52.987 52.987 0 0 0 15.62 37.714l416 416a53.333 53.333 0 0 0 75.427 0l360.08-360.08a53.4 53.4 0 0 0 0-75.427z" fill="#789262" p-id="6390"></path></svg>