<?xml version="1.0" standalone="no"?><!DOCTYPE svg PUBLIC "-//W3C//DTD SVG 1.1//EN" "http://www.w3.org/Graphics/SVG/1.1/DTD/svg11.dtd"><svg t="1618312974812" class="icon" viewBox="0 0 1024 1024" version="1.1" xmlns="http://www.w3.org/2000/svg" p-id="1104" xmlns:xlink="http://www.w3.org/1999/xlink" width="64" height="64"><defs><style type="text/css"></style></defs><path d="M427.5 179h-238c-12.43 0-22.5 10.07-22.5 22.5s10.07 22.5 22.5 22.5h238c12.43 0 22.5-10.07 22.5-22.5S439.93 179 427.5 179zM338.5 312h-149c-12.43 0-22.5 10.07-22.5 22.5s10.07 22.5 22.5 22.5h149c12.43 0 22.5-10.07 22.5-22.5S350.93 312 338.5 312z" fill="#789262" p-id="1105"></path><path d="M844.15 584.55c-11.68-4.25-24.59 1.77-28.84 13.45l-72.74 199.85c-4.25 11.68 1.77 24.59 13.45 28.84s24.59-1.77 28.84-13.45l72.74-199.85c4.25-11.68-1.77-24.59-13.45-28.84zM689.1 618.47c-10.18-7.13-24.21-4.65-31.34 5.53l-47.52 67.87a22.33 22.33 0 0 0-3.99 11.32c-0.01 0.07-0.01 0.14-0.01 0.21-0.03 0.5-0.05 1-0.05 1.5s0.02 1 0.05 1.5c0.01 0.07 0.01 0.14 0.01 0.21 0.27 3.94 1.56 7.85 3.99 11.32l47.52 67.87c7.13 10.18 21.16 12.65 31.34 5.53 10.18-7.13 12.65-21.16 5.53-31.34l-38.58-55.09 38.58-55.09c7.12-10.18 4.65-24.21-5.53-31.34zM993.98 704.9c0-0.5-0.02-1-0.05-1.5-0.01-0.07-0.01-0.14-0.01-0.21-0.27-3.94-1.56-7.85-3.99-11.32L942.41 624c-7.13-10.18-21.16-12.65-31.34-5.53s-12.65 21.16-5.53 31.34l38.58 55.09-38.58 55.09c-7.13 10.18-4.65 24.21 5.53 31.34s24.21 4.65 31.34-5.53l47.52-67.87a22.33 22.33 0 0 0 3.99-11.32c0.01-0.07 0.01-0.14 0.01-0.21 0.03-0.5 0.05-1 0.05-1.5z" fill="#789262" p-id="1106"></path><path d="M1024 555V102.62C1024 46.18 977.82 0 921.38 0H102.62C46.18 0 0 46.18 0 102.62v607.76C0 766.82 46.18 813 102.62 813H483v153H210c-16.02 0-29 12.98-29 29s12.98 29 29 29h604c16.02 0 29-12.98 29-29s-12.98-29-29-29H541V813h43.97v0.03c11.9-1.01 21.25-10.98 21.25-23.13 0-12.14-9.33-22.1-21.22-23.12v-0.01H102.62c-14.95 0-29.08-5.9-39.79-16.61-10.71-10.71-16.61-24.84-16.61-39.79V102.62c0-14.95 5.9-29.08 16.61-39.79 10.71-10.71 24.84-16.61 39.79-16.61h818.76c14.95 0 29.08 5.9 39.79 16.61 10.71 10.71 16.61 24.84 16.61 39.79V555c1.01 11.9 10.98 21.25 23.13 21.25 12.15 0 22.11-9.35 23.13-21.25h-0.04z" fill="#789262" p-id="1107"></path></svg>